<?xml version="1.0" encoding="UTF-8"?>
<!-- Opcion 26: Fuegos artificiales / fireworks -->
<svg xmlns="http://www.w3.org/2000/svg" viewBox="0 0 200 200">
  <defs>
    <linearGradient id="bg26" x1="0" y1="0" x2="1" y2="1">
      <stop offset="0%" stop-color="#1B2A4A"/>
      <stop offset="100%" stop-color="#0F1A2E"/>
    </linearGradient>
  </defs>
  <rect width="200" height="200" rx="40" fill="url(#bg26)"/>
  <!-- Firework principal (centro) -->
  <circle cx="100" cy="80" r="5" fill="#D4B87A"/>
  <line x1="100" y1="45" x2="100" y2="60" stroke="#D4B87A" stroke-width="2.5" stroke-linecap="round"/>
  <line x1="100" y1="100" x2="100" y2="115" stroke="#D4B87A" stroke-width="2.5" stroke-linecap="round"/>
  <line x1="65" y1="80" x2="80" y2="80" stroke="#D4B87A" stroke-width="2.5" stroke-linecap="round"/>
  <line x1="120" y1="80" x2="135" y2="80" stroke="#D4B87A" stroke-width="2.5" stroke-linecap="round"/>
  <line x1="76" y1="56" x2="84" y2="64" stroke="#C4A265" stroke-width="2" stroke-linecap="round"/>
  <line x1="124" y1="56" x2="116" y2="64" stroke="#C4A265" stroke-width="2" stroke-linecap="round"/>
  <line x1="76" y1="104" x2="84" y2="96" stroke="#C4A265" stroke-width="2" stroke-linecap="round"/>
  <line x1="124" y1="104" x2="116" y2="96" stroke="#C4A265" stroke-width="2" stroke-linecap="round"/>
  <!-- Puntas con destellos -->
  <circle cx="100" cy="42" r="2.5" fill="#F5F0E8" opacity="0.7"/>
  <circle cx="100" cy="118" r="2.5" fill="#F5F0E8" opacity="0.5"/>
  <circle cx="62" cy="80" r="2.5" fill="#F5F0E8" opacity="0.5"/>
  <circle cx="138" cy="80" r="2.5" fill="#F5F0E8" opacity="0.7"/>
  <circle cx="73" cy="53" r="2" fill="#F5F0E8" opacity="0.4"/>
  <circle cx="127" cy="53" r="2" fill="#F5F0E8" opacity="0.4"/>
  <!-- Firework secundario (izq arriba) -->
  <circle cx="55" cy="130" r="2.5" fill="#C4A265" opacity="0.5"/>
  <line x1="55" y1="120" x2="55" y2="124" stroke="#C4A265" stroke-width="1.5" stroke-linecap="round" opacity="0.5"/>
  <line x1="45" y1="130" x2="49" y2="130" stroke="#C4A265" stroke-width="1.5" stroke-linecap="round" opacity="0.5"/>
  <line x1="65" y1="130" x2="61" y2="130" stroke="#C4A265" stroke-width="1.5" stroke-linecap="round" opacity="0.5"/>
  <line x1="55" y1="136" x2="55" y2="140" stroke="#C4A265" stroke-width="1.5" stroke-linecap="round" opacity="0.5"/>
  <!-- Firework secundario (der) -->
  <circle cx="150" cy="140" r="2" fill="#D4B87A" opacity="0.4"/>
  <line x1="150" y1="132" x2="150" y2="135" stroke="#D4B87A" stroke-width="1" stroke-linecap="round" opacity="0.4"/>
  <line x1="142" y1="140" x2="145" y2="140" stroke="#D4B87A" stroke-width="1" stroke-linecap="round" opacity="0.4"/>
  <line x1="155" y1="140" x2="158" y2="140" stroke="#D4B87A" stroke-width="1" stroke-linecap="round" opacity="0.4"/>
  <!-- Estela -->
  <path d="M100,170 Q102,150 100,120" fill="none" stroke="#6B7B8D" stroke-width="1" opacity="0.2"/>
</svg>
