<?xml version="1.0" encoding="UTF-8"?>
<!-- Solennix — Icon Only FILLED (monocromo navy, para fondos claros) -->
<svg xmlns="http://www.w3.org/2000/svg" viewBox="0 0 200 200">
  <!-- Copa rellena -->
  <path d="M66,34 Q58,65 66,88 Q78,116 100,122 Q122,116 134,88 Q142,65 134,34 Q100,42 66,34 Z"
        fill="#1B2A4A"/>

  <!-- Reflejo sutil -->
  <path d="M76,38 Q72,58 76,82 Q85,104 100,112 L100,42 Q82,44 76,38 Z"
        fill="rgba(255,255,255,0.08)"/>

  <!-- Nodo -->
  <ellipse cx="100" cy="124" rx="6" ry="3" fill="#1B2A4A"/>

  <!-- Tallo + base rellenos -->
  <path d="M96,124 L96,150 Q96,156 84,159 L72,161 L72,164 A30,8 0 0,0 128,164 L128,161 L116,159 Q104,156 104,150 L104,124 Z"
        fill="#1B2A4A"/>

  <!-- Destello -->
  <g transform="translate(132,32)" opacity="0.4">
    <line x1="0" y1="-7" x2="0" y2="7" stroke="#1B2A4A" stroke-width="1.3" stroke-linecap="round"/>
    <line x1="-7" y1="0" x2="7" y2="0" stroke="#1B2A4A" stroke-width="1.3" stroke-linecap="round"/>
    <line x1="-3.5" y1="-3.5" x2="3.5" y2="3.5" stroke="#1B2A4A" stroke-width="0.7" stroke-linecap="round"/>
    <line x1="3.5" y1="-3.5" x2="-3.5" y2="3.5" stroke="#1B2A4A" stroke-width="0.7" stroke-linecap="round"/>
  </g>

  <!-- Micro destello -->
  <g transform="translate(70,30)" opacity="0.2">
    <line x1="0" y1="-4" x2="0" y2="4" stroke="#1B2A4A" stroke-width="0.8" stroke-linecap="round"/>
    <line x1="-4" y1="0" x2="4" y2="0" stroke="#1B2A4A" stroke-width="0.8" stroke-linecap="round"/>
  </g>
</svg>
