<?xml version="1.0" encoding="UTF-8"?>
<!-- Solennix — Icon Only FILLED (fondo transparente, dorado) -->
<svg xmlns="http://www.w3.org/2000/svg" viewBox="0 0 200 200">
  <defs>
    <linearGradient id="gT" x1="0" y1="0" x2="0" y2="1">
      <stop offset="0%" stop-color="#D4B87A"/>
      <stop offset="45%" stop-color="#C4A265"/>
      <stop offset="100%" stop-color="#B8965A"/>
    </linearGradient>
  </defs>

  <!-- Copa rellena -->
  <path d="M66,34 Q58,65 66,88 Q78,116 100,122 Q122,116 134,88 Q142,65 134,34 Q100,42 66,34 Z"
        fill="url(#gT)"/>

  <!-- Reflejo sutil -->
  <path d="M76,38 Q72,58 76,82 Q85,104 100,112 L100,42 Q82,44 76,38 Z"
        fill="rgba(255,255,255,0.12)"/>

  <!-- Nodo -->
  <ellipse cx="100" cy="124" rx="6" ry="3" fill="url(#gT)"/>

  <!-- Tallo + base rellenos -->
  <path d="M96,124 L96,150 Q96,156 84,159 L72,161 L72,164 A30,8 0 0,0 128,164 L128,161 L116,159 Q104,156 104,150 L104,124 Z"
        fill="url(#gT)"/>

  <!-- Destello -->
  <g transform="translate(132,32)" opacity="0.65">
    <line x1="0" y1="-8" x2="0" y2="8" stroke="#F5F0E8" stroke-width="1.5" stroke-linecap="round"/>
    <line x1="-8" y1="0" x2="8" y2="0" stroke="#F5F0E8" stroke-width="1.5" stroke-linecap="round"/>
    <line x1="-4" y1="-4" x2="4" y2="4" stroke="#F5F0E8" stroke-width="0.8" stroke-linecap="round"/>
    <line x1="4" y1="-4" x2="-4" y2="4" stroke="#F5F0E8" stroke-width="0.8" stroke-linecap="round"/>
    <circle cx="0" cy="0" r="2" fill="#F5F0E8" opacity="0.5"/>
  </g>
</svg>
