<?xml version="1.0" encoding="UTF-8"?>
<!-- Solennix — App Icon Final FILLED (Copa Tulipan) -->
<svg xmlns="http://www.w3.org/2000/svg" viewBox="0 0 200 200">
  <defs>
    <linearGradient id="bgI" x1="0" y1="0" x2="1" y2="1">
      <stop offset="0%" stop-color="#1B2A4A"/>
      <stop offset="100%" stop-color="#0F1A2E"/>
    </linearGradient>
    <linearGradient id="gI" x1="0" y1="0" x2="0" y2="1">
      <stop offset="0%" stop-color="#D4B87A"/>
      <stop offset="45%" stop-color="#C4A265"/>
      <stop offset="100%" stop-color="#B8965A"/>
    </linearGradient>
    <linearGradient id="gIH" x1="0" y1="0" x2="1" y2="0">
      <stop offset="0%" stop-color="#B8965A"/>
      <stop offset="50%" stop-color="#D4B87A"/>
      <stop offset="100%" stop-color="#B8965A"/>
    </linearGradient>
    <radialGradient id="glI" cx="50%" cy="38%">
      <stop offset="0%" stop-color="#D4B87A" stop-opacity="0.07"/>
      <stop offset="70%" stop-color="#D4B87A" stop-opacity="0.02"/>
      <stop offset="100%" stop-color="#D4B87A" stop-opacity="0"/>
    </radialGradient>
  </defs>

  <!-- Fondo con esquinas redondeadas -->
  <rect width="200" height="200" rx="40" fill="url(#bgI)"/>
  <circle cx="100" cy="78" r="65" fill="url(#glI)"/>

  <!-- Copa rellena (bowl cerrado) -->
  <path d="M66,34 Q58,65 66,88 Q78,116 100,122 Q122,116 134,88 Q142,65 134,34 Q100,42 66,34 Z"
        fill="url(#gI)"/>

  <!-- Reflejo sutil en la copa -->
  <path d="M76,38 Q72,58 76,82 Q85,104 100,112 L100,42 Q82,44 76,38 Z"
        fill="rgba(255,255,255,0.10)"/>

  <!-- Nodo (union bowl-tallo) -->
  <ellipse cx="100" cy="124" rx="6" ry="3" fill="url(#gI)"/>

  <!-- Tallo + base rellenos -->
  <path d="M96,124 L96,150 Q96,156 84,159 L72,161 L72,164 A30,8 0 0,0 128,164 L128,161 L116,159 Q104,156 104,150 L104,124 Z"
        fill="url(#gI)"/>

  <!-- Destello principal -->
  <g transform="translate(132,32)" opacity="0.65">
    <line x1="0" y1="-8" x2="0" y2="8" stroke="#F5F0E8" stroke-width="1.5" stroke-linecap="round"/>
    <line x1="-8" y1="0" x2="8" y2="0" stroke="#F5F0E8" stroke-width="1.5" stroke-linecap="round"/>
    <line x1="-4" y1="-4" x2="4" y2="4" stroke="#F5F0E8" stroke-width="0.8" stroke-linecap="round"/>
    <line x1="4" y1="-4" x2="-4" y2="4" stroke="#F5F0E8" stroke-width="0.8" stroke-linecap="round"/>
    <circle cx="0" cy="0" r="2" fill="#F5F0E8" opacity="0.5"/>
  </g>

  <!-- Destello secundario -->
  <g transform="translate(72,30)" opacity="0.35">
    <line x1="0" y1="-5" x2="0" y2="5" stroke="#D4B87A" stroke-width="1" stroke-linecap="round"/>
    <line x1="-5" y1="0" x2="5" y2="0" stroke="#D4B87A" stroke-width="1" stroke-linecap="round"/>
    <circle cx="0" cy="0" r="1.5" fill="#D4B87A" opacity="0.4"/>
  </g>

  <circle cx="142" cy="50" r="1" fill="#F5F0E8" opacity="0.2"/>
  <circle cx="60" cy="46" r="0.8" fill="#D4B87A" opacity="0.15"/>
  <circle cx="118" cy="24" r="0.8" fill="#F5F0E8" opacity="0.2"/>
</svg>
